# xmcd
#
# Track frame offsets: 
#        187
#        15500
#        33100
#        48975
#        62875
#        78937
#        104500
#        118762
#        139850
#
# Disc length: 2169 seconds
#
# Revision: 0
# Processed by: cddbd v1.5.2PL0 Copyright (c) Steve Scherf et al.
# Submitted via: ExactAudioCopy v0.99pb4
#
DISCID=70087709
DTITLE=wolfgang dauner - piano4
DYEAR=1900
DGENRE=Jazz
TTITLE0=take the Atrain
TTITLE1=waltz for a young girl
TTITLE2=take the coltrane
TTITLE3=balon lazar
TTITLE4=what is this thing called love
TTITLE5=willow weep for me
TTITLE6=goofin' each other
TTITLE7=you do something for me
TTITLE8=big "p"
EXTD=
EXTT0=
EXTT1=
EXTT2=
EXTT3=
EXTT4=
EXTT5=
EXTT6=
EXTT7=
EXTT8=
PLAYORDER=
